# xmcd CD database file generated by Grip 2.95
# 
# Track frame offsets:
#       150
#       19320
#       44165
#       68552
#       98105
#       124707
#       141397
#       174975
#       193127
#       216620
#       234960
#       258525
# 
# Disc length: 3752 seconds
# 
# Revision: 3
# Processed by: cddbd v1.4b41PL1 Copyright (c) Steve Scherf et al.
# Submitted via: Grip 2.95
# 
DISCID=b70ea60c
DTITLE=Lonnie Shields - Blues Is On Fire
DYEAR=1900
DGENRE=
TTITLE0=Everyman Needs a Good Woman
TTITLE1=Man is Under Pressure
TTITLE2=Going to the Juke Joint
TTITLE3=Play me a Song
TTITLE4=Doin' Time
TTITLE5=Blues is on Fire
TTITLE6=Best Friend Stole My Woman
TTITLE7=All the Way Down
TTITLE8=Daddy Told Me So
TTITLE9=Let me Be the One
TTITLE10=Party Down
TTITLE11=Freedom
EXTD=
EXTT0=
EXTT1=
EXTT2=
EXTT3=
EXTT4=
EXTT5=
EXTT6=
EXTT7=
EXTT8=
EXTT9=
EXTT10=
EXTT11=
PLAYORDER=
